<svg width="73" height="73" viewBox="0 0 73 73" fill="none" xmlns="http://www.w3.org/2000/svg">
<path d="M15.2083 51.7083C15.2083 53.3217 15.8492 54.8691 16.9901 56.0099C18.1309 57.1507 19.6782 57.7917 21.2916 57.7917C22.905 57.7917 24.4524 57.1507 25.5932 56.0099C26.7341 54.8691 27.375 53.3217 27.375 51.7083C27.375 50.0949 26.7341 48.5476 25.5932 47.4068C24.4524 46.2659 22.905 45.625 21.2916 45.625C19.6782 45.625 18.1309 46.2659 16.9901 47.4068C15.8492 48.5476 15.2083 50.0949 15.2083 51.7083ZM45.625 51.7083C45.625 53.3217 46.2659 54.8691 47.4067 56.0099C48.5476 57.1507 50.0949 57.7917 51.7083 57.7917C53.3217 57.7917 54.869 57.1507 56.0099 56.0099C57.1507 54.8691 57.7916 53.3217 57.7916 51.7083C57.7916 50.0949 57.1507 48.5476 56.0099 47.4068C54.869 46.2659 53.3217 45.625 51.7083 45.625C50.0949 45.625 48.5476 46.2659 47.4067 47.4068C46.2659 48.5476 45.625 50.0949 45.625 51.7083Z" stroke="white" stroke-width="2" stroke-linecap="round" stroke-linejoin="round"/>
<path d="M15.2083 51.7084H9.12498V39.5417M6.08331 15.2084H39.5416V51.7084M27.375 51.7084H45.625M57.7916 51.7084H63.875V33.4584M63.875 33.4584H39.5416M63.875 33.4584L54.75 18.25H39.5416M9.12498 27.375H21.2916" stroke="white" stroke-width="2" stroke-linecap="round" stroke-linejoin="round"/>
</svg>
