<svg width="63" height="63" viewBox="0 0 63 63" fill="none" xmlns="http://www.w3.org/2000/svg">
<g clip-path="url(#clip0_236_195)">
<path d="M16 42V12.2168H18.625V39.375H35.992V42H16ZM27.0801 7.57313C26.0231 7.57313 25.1236 7.20213 24.3816 6.46013C23.6396 5.71813 23.2695 4.82738 23.2712 3.78788C23.273 2.74838 23.644 1.85676 24.3842 1.11301C25.1245 0.369256 26.0152 -0.00174384 27.0565 6.16197e-06C28.1292 6.16197e-06 29.0287 0.371006 29.755 1.11301C30.4795 1.85326 30.8418 2.74401 30.8418 3.78526C30.8418 4.82651 30.4786 5.71726 29.7524 6.45751C29.0261 7.19776 28.1354 7.56876 27.0801 7.57051M40.7853 47.25V34.7288H23.2712V16.2173C23.2712 15.106 23.6536 14.1619 24.4184 13.3849C25.1831 12.6079 26.1071 12.2194 27.1904 12.2194C27.9534 12.2194 28.6289 12.4364 29.2169 12.8704C29.8031 13.3044 30.3421 13.7769 30.8339 14.2879C32.7011 16.2304 34.669 18.0198 36.7375 19.656C38.806 21.2923 41.2 22.1113 43.9195 22.113H48.7757C47.8482 21.5705 47.1098 20.8355 46.5603 19.908C46.0107 18.977 45.736 17.9288 45.736 16.7633H58.3727C58.3727 17.927 58.0971 18.9744 57.5459 19.9054C56.9946 20.8364 56.257 21.5723 55.333 22.113H63.25V24.738H53.3537V47.25H50.7287V24.7354H43.9169C41.4301 24.7354 39.1315 24.1229 37.021 22.8979C34.9105 21.6729 32.8507 20.1416 30.8418 18.3041V30.8438H43.4103V47.25H40.7853Z" fill="white"/>
</g>
<defs>
<clipPath id="clip0_236_195">
<rect width="63" height="63" fill="white"/>
</clipPath>
</defs>
</svg>
