<svg width="41" height="46" viewBox="0 0 41 46" fill="none" xmlns="http://www.w3.org/2000/svg">
<g clip-path="url(#clip0_265_278)">
<path d="M30.3849 16.5634C33.3763 18.6802 37.041 19.9257 40.999 19.9257V12.3864C40.2498 12.3867 39.5027 12.3093 38.7699 12.1555V18.0899C34.8123 18.0899 31.1481 16.8446 28.156 14.728V30.1136C28.156 37.8103 21.8529 44.0492 14.0783 44.0492C11.1774 44.0492 8.481 43.181 6.24121 41.6921C8.79763 44.2796 12.3627 45.8847 16.3067 45.8847C24.082 45.8847 30.3852 39.6459 30.3852 31.9488V16.5634H30.3849ZM33.1348 8.9572C31.606 7.3039 30.6021 5.16728 30.3849 2.8051V1.83545H28.2726C28.8043 4.83766 30.6181 7.40256 33.1348 8.9572ZM11.1586 35.786C10.3044 34.6775 9.84272 33.3212 9.84489 31.9267C9.84489 28.4066 12.7279 25.5524 16.2848 25.5524C16.9475 25.5521 17.6064 25.6528 18.2382 25.8511V18.1432C17.4999 18.0432 16.7548 18.0005 16.0101 18.0162V24.0155C15.378 23.8172 14.7188 23.7165 14.0557 23.717C10.499 23.717 7.61615 26.5709 7.61615 30.0915C7.61615 32.5809 9.05708 34.7361 11.1586 35.786Z" fill="#FF004F"/>
<path d="M28.1561 14.7278C31.1483 16.8445 34.8121 18.0898 38.7699 18.0898V12.1553C36.5607 11.6894 34.6051 10.5467 33.1347 8.9572C30.6178 7.4024 28.8044 4.8375 28.2727 1.83545H22.7244V31.9485C22.7117 35.4591 19.8337 38.3016 16.2845 38.3016C14.1932 38.3016 12.335 37.3148 11.1584 35.7858C9.05711 34.7361 7.61602 32.5807 7.61602 30.0917C7.61602 26.5714 10.4988 23.7172 14.0556 23.7172C14.737 23.7172 15.3938 23.8222 16.01 24.0157V18.0163C8.3718 18.1726 2.229 24.3505 2.229 31.9486C2.229 35.7416 3.75866 39.18 6.2414 41.6924C8.48118 43.181 11.1774 44.0495 14.0785 44.0495C21.8533 44.0495 28.1562 37.8101 28.1562 30.1136L28.1561 14.7278Z" fill="black"/>
<path d="M38.7698 12.1551V10.5508C36.7777 10.5537 34.8248 10.0014 33.1346 8.95715C34.6307 10.5786 36.6009 11.6967 38.7698 12.1554M28.2724 1.83524C28.2217 1.54839 28.1828 1.25962 28.1558 0.969648V0H20.4949V30.1133C20.4827 33.6236 17.6047 36.4661 14.0553 36.4661C13.0491 36.4676 12.0566 36.2346 11.1581 35.7861C12.3348 37.3147 14.1929 38.3013 16.2842 38.3013C19.8333 38.3013 22.7116 35.4592 22.7241 31.9486V1.8354L28.2724 1.83524ZM16.0102 18.0161V16.308C15.37 16.2214 14.7246 16.178 14.0785 16.1782C6.30295 16.1782 0 22.4174 0 30.1133C0 34.9384 2.47714 39.1907 6.24145 41.692C3.75871 39.1798 2.22905 35.7412 2.22905 31.9484C2.22905 24.3505 8.37169 18.1724 16.0102 18.0161Z" fill="#00F2EA"/>
</g>
<defs>
<clipPath id="clip0_265_278">
<rect width="41" height="46" fill="white"/>
</clipPath>
</defs>
</svg>
